<svg width="197" height="40" viewBox="0 0 197 40" fill="none" xmlns="http://www.w3.org/2000/svg">
<path d="M131.142 28.5069C130.449 28.5069 129.886 27.955 129.886 27.2776V10.2688H128.001V27.2776C128.001 28.994 129.41 30.3917 131.142 30.3917H143.911V28.5069H131.142H131.142Z" fill="#040404"/>
<path d="M191.692 10.2697H178.106V30.3914H179.94V12.1544H191.692C193.373 12.1544 194.741 13.7627 194.741 15.7385V24.9484C194.741 26.9103 193.373 28.5066 191.692 28.5066H181.662V30.3914H191.692C194.358 30.3914 196.61 27.899 196.61 24.9484V15.7385C196.61 12.6209 194.496 10.2697 191.692 10.2697Z" fill="#040404"/>
<path d="M123.017 10.0985L114.398 20.4458L105.779 10.0985H103.311V30.611H106.217V15.3107L113.542 23.8847H115.232L122.58 15.3045V30.611H125.486V10.0985H123.017Z" fill="#040404"/>
<path d="M70.3933 13.2764V10.3251H52V13.2764H59.7098V29.5592H62.6602V13.2764H70.3933Z" fill="#040404"/>
<path d="M99.6774 9.94867C95.2758 9.94867 92.6607 14.0048 89.8926 18.2989C88.1946 20.9332 86.3633 23.6563 84.2981 25.465C82.5906 26.91 80.8196 27.4769 80.802 27.4819C80.127 27.6805 79.4182 27.7822 78.7036 27.7822C74.5975 27.7822 71.2554 24.4421 71.2554 20.3345C71.2554 16.2275 74.5975 12.8868 78.7036 12.8868C80.8064 12.8868 82.7772 13.7591 84.1869 15.2981L75.6909 25.3132C75.6909 25.3132 76.2942 25.8076 77.1244 26.1142C77.9552 26.4203 78.5641 26.4976 78.5641 26.4976L87.9537 15.4439L87.3881 14.591C85.4513 11.6681 82.2047 9.92355 78.7037 9.92355C72.9629 9.92355 68.293 14.5943 68.293 20.3344C68.293 26.0753 72.9629 30.7458 78.7037 30.7458C79.5729 30.7458 81.8579 30.5862 84.3025 29.1112C87.8274 26.9714 90.247 23.217 92.383 19.9052C94.3722 16.8201 96.118 14.1115 98.1962 13.2211V21.6769H93.2178L91.3287 24.6398H98.1962V30.7214H101.159V9.94858H99.6775L99.6774 9.94867Z" fill="#040404"/>
<path d="M174.339 10.1133C170.094 10.1133 167.459 14.2013 164.669 18.5294C162.807 21.4159 160.883 24.401 158.398 26.4031L158.386 26.4132L158.373 26.4252C158.35 26.447 155.869 28.7001 152.481 28.7001C147.853 28.7001 144.09 24.9363 144.09 20.3098C144.09 15.6831 147.853 11.9193 152.481 11.9193C155.007 11.9193 157.42 13.0883 159.009 15.0647L149.917 25.8791L151.324 27.0536L161.319 15.1397C161.319 15.1397 158.51 10.0875 152.481 10.0875C146.844 10.0875 142.258 14.6732 142.258 20.3099C142.258 25.9463 146.844 30.5315 152.481 30.5315C154.826 30.5315 157.114 29.4461 157.798 29.0276C161.456 26.8928 163.981 22.977 166.208 19.5218C168.585 15.8353 170.656 12.6227 173.423 12.0394V22.3366H166.356L165.019 24.1684H173.423V30.5057H175.255V10.1133H174.339L174.339 10.1133Z" fill="#040404"/>
<path fill-rule="evenodd" clip-rule="evenodd" d="M17.019 5.00691C17.019 7.77148 19.2605 10.0129 22.0252 10.0129C24.7906 10.0129 27.0316 7.77148 27.0316 5.00691C27.0316 2.24143 24.7906 0 22.0252 0C19.2605 0 17.019 2.24143 17.019 5.00691ZM18.745 5.00691C18.745 3.19822 20.2164 1.72599 22.0251 1.72599C23.8342 1.72599 25.3056 3.19822 25.3056 5.00691C25.3056 6.81514 23.8342 8.28703 22.0251 8.28703C20.2164 8.28703 18.745 6.81514 18.745 5.00691Z" fill="url(#paint0_linear)"/>
<path fill-rule="evenodd" clip-rule="evenodd" d="M2.50407 29.9323C0.109875 31.3155 -0.711149 34.3767 0.671647 36.7718C1.59921 38.3777 3.28181 39.2754 5.01182 39.2754C5.86122 39.2754 6.72201 39.0589 7.51023 38.6035C9.90528 37.2212 10.7255 34.1595 9.34316 31.7649C8.41588 30.1588 6.73294 29.2609 5.00248 29.2609C4.15393 29.2609 3.29269 29.4776 2.50407 29.9323ZM2.16659 35.9082C1.26208 34.3419 1.80109 32.3318 3.36729 31.4277C3.86619 31.1396 4.43192 30.9871 5.00299 30.9871C6.17366 30.9871 7.26385 31.6157 7.84822 32.6285C8.28634 33.3871 8.40257 34.2705 8.17561 35.1171C7.94904 35.9633 7.40653 36.6708 6.64741 37.109C6.14897 37.3966 5.58317 37.549 5.01177 37.549C3.84144 37.549 2.75097 36.9204 2.16654 35.9082H2.16659Z" fill="url(#paint1_linear)"/>
<path fill-rule="evenodd" clip-rule="evenodd" d="M34.6892 31.7649C33.3069 34.1595 34.1275 37.2212 36.5217 38.6035C37.3104 39.059 38.1712 39.2754 39.0201 39.2754C40.7506 39.2754 42.4336 38.3774 43.3608 36.7718C44.7435 34.3767 43.9229 31.3154 41.5283 29.9323C40.74 29.4776 39.8793 29.2609 39.0299 29.2609C37.2999 29.2609 35.6164 30.1588 34.6892 31.7649ZM37.3853 37.109C36.6264 36.6709 36.0832 35.9633 35.8567 35.1171C35.6302 34.2705 35.7465 33.3871 36.1846 32.6285C36.7689 31.6158 37.8591 30.9871 39.0299 30.9871C39.6009 30.9871 40.1665 31.1396 40.665 31.4277C42.2318 32.3318 42.77 34.3419 41.8658 35.9082C41.2811 36.9204 40.1909 37.549 39.0201 37.549C38.4496 37.549 37.8843 37.3965 37.3853 37.109Z" fill="url(#paint2_linear)"/>
<path fill-rule="evenodd" clip-rule="evenodd" d="M13.5986 19.7058C12.2487 20.9759 11.1423 22.3801 10.359 23.8462C8.83934 26.6908 8.68731 29.4432 9.93145 31.5967C11.1744 33.7511 13.6343 34.996 16.8577 35.1017C18.2729 35.1877 20.2865 34.9026 22.0266 34.3625C23.6456 34.8391 25.237 35.0838 26.7182 35.0838C30.0218 35.0838 32.7848 33.9066 34.1185 31.5967C35.3623 29.4432 35.2107 26.6907 33.6906 23.8462C32.9076 22.3801 31.8017 20.9775 30.4526 19.7075C29.1563 14.4498 25.8693 10.7039 22.0254 10.7039C18.1819 10.7039 14.895 14.4488 13.5986 19.7059V19.7058ZM22.0254 12.4376C24.5125 12.4376 26.7085 14.5469 28.0231 17.7516C27.6454 17.491 27.2568 17.241 26.8576 17.0011C25.4595 16.11 23.8021 15.5912 22.0246 15.5912C20.2471 15.5912 18.5901 16.11 17.1915 17.0015C16.7882 17.2439 16.3948 17.4962 16.0139 17.7601C17.3306 14.5489 19.5351 12.4375 22.0254 12.4375V12.4376ZM14.7333 24.625C14.7333 22.1939 15.9747 19.6616 18.3863 18.3064L18.3835 18.3012C19.4562 17.6795 20.6979 17.3176 22.0247 17.3176C26.0553 17.3176 29.3168 20.5926 29.3168 24.6284C29.3168 28.5662 26.076 31.9031 22.0247 31.9031C17.9037 31.9031 14.7334 28.5329 14.7334 24.625H14.7333ZM16.9148 33.3692C14.3118 33.2837 12.3651 32.3463 11.4322 30.7302C10.4997 29.1141 10.6609 26.9593 11.888 24.6632C12.2228 24.0363 12.6269 23.4215 13.0885 22.825C13.0451 23.3319 13.0078 24.6749 13.0078 24.6749C13.0318 27.9899 14.8525 30.8834 17.543 32.4315L17.5417 32.4336C17.6281 32.4838 18.6695 33.0431 19.1069 33.2497C18.4986 33.3323 17.8992 33.3761 17.3152 33.3761C17.1806 33.3761 17.0474 33.3737 16.9149 33.3692H16.9148ZM24.904 33.2599C25.2715 33.0856 26.0006 32.703 26.0014 32.7026C28.6099 31.415 30.5102 28.9038 30.9471 25.9219C31.0066 25.5147 31.1079 23.6189 30.962 22.8262C31.4241 23.4228 31.8264 24.0371 32.1616 24.6632C33.3888 26.9593 33.5504 29.1141 32.6175 30.7302C31.5923 32.5052 29.4262 33.3972 26.7742 33.3972C26.1733 33.3972 25.5476 33.3514 24.904 33.2599Z" fill="url(#paint3_linear)"/>
<defs>
<linearGradient id="paint0_linear" x1="15.3055" y1="0.896108" x2="28.3928" y2="9.47274" gradientUnits="userSpaceOnUse">
<stop stop-color="#DEDC00"/>
<stop offset="0.4" stop-color="#76B53A"/>
<stop offset="1" stop-color="#0E8E75"/>
</linearGradient>
<linearGradient id="paint1_linear" x1="-1.71388" y1="30.1571" x2="11.3757" y2="38.7357" gradientUnits="userSpaceOnUse">
<stop stop-color="#DEDC00"/>
<stop offset="0.4" stop-color="#76B53A"/>
<stop offset="1" stop-color="#0E8E75"/>
</linearGradient>
<linearGradient id="paint2_linear" x1="32.3039" y1="30.1571" x2="45.3935" y2="38.7357" gradientUnits="userSpaceOnUse">
<stop stop-color="#DEDC00"/>
<stop offset="0.4" stop-color="#76B53A"/>
<stop offset="1" stop-color="#0E8E75"/>
</linearGradient>
<linearGradient id="paint3_linear" x1="4.67266" y1="12.8888" x2="37.2752" y2="35.5174" gradientUnits="userSpaceOnUse">
<stop stop-color="#DEDC00"/>
<stop offset="0.4" stop-color="#76B53A"/>
<stop offset="1" stop-color="#0E8E75"/>
</linearGradient>
</defs>
</svg>
